<svg width="16" height="16" viewBox="0 0 16 16" fill="none" xmlns="http://www.w3.org/2000/svg">
<path d="M12.0206 11.0778L14.8758 13.933L13.933 14.8758L11.0778 12.0206C10.0512 12.842 8.74931 13.3333 7.33331 13.3333C4.02131 13.3333 1.33331 10.6453 1.33331 7.33331C1.33331 4.02131 4.02131 1.33331 7.33331 1.33331C10.6453 1.33331 13.3333 4.02131 13.3333 7.33331C13.3333 8.74931 12.842 10.0512 12.0206 11.0778ZM10.6831 10.5832C11.4983 9.74305 12 8.59705 12 7.33331C12 4.75498 9.91165 2.66665 7.33331 2.66665C4.75498 2.66665 2.66665 4.75498 2.66665 7.33331C2.66665 9.91165 4.75498 12 7.33331 12C8.59705 12 9.74305 11.4983 10.5832 10.6831L10.6831 10.5832Z" fill="white"/>
</svg>
