<svg width="17" height="16" viewBox="0 0 17 16" fill="none" xmlns="http://www.w3.org/2000/svg">
    <path d="M2.50004 2C2.13185 2 1.83337 2.29848 1.83337 2.66667V13.3333C1.83337 13.7015 2.13185 14 2.50004 14H14.5C14.8682 14 15.1667 13.7015 15.1667 13.3333V2.66667C15.1667 2.29848 14.8682 2 14.5 2H2.50004ZM5.83337 3.33333V5.33333H3.16671V3.33333H5.83337ZM3.16671 9.33333V6.66667H5.83337V9.33333H3.16671ZM3.16671 10.6667H5.83337V12.6667H3.16671V10.6667ZM7.16671 10.6667H13.8334V12.6667H7.16671V10.6667ZM13.8334 9.33333H7.16671V6.66667H13.8334V9.33333ZM13.8334 3.33333V5.33333H7.16671V3.33333H13.8334Z" fill="#9CBEEB"/>
</svg>